<svg id="logo" data-name="Layer 1" xmlns="http://www.w3.org/2000/svg" viewBox="0 0 1424.35 484.5"><defs><style>.cls-1{fill:none;stroke:#fff;stroke-miterlimit:10;stroke-width:11px;}</style></defs><path class="cls-1" d="M1327.77,678H1108.65a31.17,31.17,0,0,1-27-46.75l109.57-189.77,109.56-189.77a31.16,31.16,0,0,1,54,0l109.57,189.77,109.56,189.77a31.17,31.17,0,0,1-27,46.75Z" transform="translate(-159.27 -199)"/><path class="cls-1" d="M887.25,441,777.68,251.25a31.17,31.17,0,0,1,27-46.75h438.25a31.17,31.17,0,0,1,27,46.75L1160.36,441,1050.79,630.79a31.16,31.16,0,0,1-54,0Z" transform="translate(-159.27 -199)"/><path class="cls-1" d="M719.08,678H500a31.17,31.17,0,0,1-27-46.75L582.52,441.48,692.09,251.71a31.16,31.16,0,0,1,54,0L855.63,441.48,965.2,631.25a31.17,31.17,0,0,1-27,46.75Z" transform="translate(-159.27 -199)"/><path class="cls-1" d="M278.55,441,169,251.25a31.17,31.17,0,0,1,27-46.75H634.23a31.17,31.17,0,0,1,27,46.75L551.66,441,442.1,630.79a31.16,31.16,0,0,1-54,0Z" transform="translate(-159.27 -199)"/></svg>