<svg id="Layer_1" data-name="Layer 1" xmlns="http://www.w3.org/2000/svg" viewBox="0 0 176.38 176.47"><defs><style>.cls-1{fill:#FFF;}</style></defs><path class="cls-1" d="M90,178.2V144c36.2,0,64.3-35.9,50.4-74a51.11,51.11,0,0,0-30.5-30.5c-38.1-13.8-74,14.2-74,50.4H1.8C1.8,32.2,57.6-12.8,118.1,6.1a85.39,85.39,0,0,1,55.7,55.7C192.7,122.4,147.8,178.2,90,178.2Z" transform="translate(-1.8 -1.73)"/><polygon class="cls-1" points="88.3 142.38 54.3 142.38 54.3 108.38 54.3 108.38 88.3 108.38 88.3 108.38 88.3 142.38"/><polygon class="cls-1" points="54.3 168.57 28.1 168.57 28.1 168.57 28.1 142.38 54.3 142.38 54.3 168.57"/><path class="cls-1" d="M29.9,144.1H8V122.2H29.9Z" transform="translate(-1.8 -1.73)"/></svg>