<?xml version="1.0" encoding="utf-8"?>
<!-- Generator: Adobe Illustrator 25.2.1, SVG Export Plug-In . SVG Version: 6.00 Build 0)  -->
<svg version="1.1" id="Layer_1" xmlns="http://www.w3.org/2000/svg" xmlns:xlink="http://www.w3.org/1999/xlink" x="0px" y="0px"
	 viewBox="0 0 2500 1509" style="enable-background:new 0 0 2500 1509;" xml:space="preserve">
<style type="text/css">
	.st0{fill:#FFF;}
</style>
<path class="st0" d="M591,393.6h470.7v37.5H634.1v282.2h402.1v37.5H634.1v309.8h432.5v37.5H591L591,393.6z M1103.9,393.6h50
	l221.6,309.8l226.5-309.8L1910.2,0L1404,736l260.9,362.1h-52l-237.3-329.6l-238.3,329.6h-51L1349.1,736L1103.9,393.6L1103.9,393.6z
	 M1683.5,431.1v-37.5h536.4v37.5h-247.1v667h-43.2v-667L1683.5,431.1L1683.5,431.1z M2.1,393.6H56L799.8,1509l-307.4-410.9
	L47.2,446.8l-2,651.3H2.1L2.1,393.6z M2215.6,1049.3c-8.8,0-15.4-6.8-15.4-15.7c0-8.9,6.6-15.7,15.4-15.7c8.9,0,15.4,6.8,15.4,15.7
	C2231,1042.4,2224.5,1049.3,2215.6,1049.3L2215.6,1049.3z M2258,1008h23.1c0.3,12.5,9.5,21,22.9,21c15,0,23.5-9,23.5-26V895.5h23.5
	v107.5c0,30.6-17.6,48.1-46.8,48.1C2276.8,1051.2,2258,1034.1,2258,1008L2258,1008z M2381.7,1006.7h23.3c2,14.4,16.1,23.6,36.3,23.6
	c18.9,0,32.7-9.8,32.7-23.3c0-11.6-8.8-18.5-28.9-23.3l-19.5-4.7c-27.4-6.4-39.9-19.7-39.9-42c0-27.1,22-45.1,55.1-45.1
	c30.8,0,53.2,18,54.6,43.6h-22.9c-2.2-14-14.4-22.7-32-22.7c-18.6,0-31,9-31,22.6c0,10.8,8,17.1,27.7,21.7l16.7,4.1
	c31.1,7.3,43.9,19.9,43.9,42.8c0,29.1-22.5,47.3-58.4,47.3C2406,1051.2,2383.4,1033.8,2381.7,1006.7L2381.7,1006.7z"/>
</svg>
